<?xml version="1.0" encoding="utf-8"?>
<!-- Generator: Adobe Illustrator 16.0.0, SVG Export Plug-In . SVG Version: 6.00 Build 0)  -->
<!DOCTYPE svg PUBLIC "-//W3C//DTD SVG 1.1//EN" "http://www.w3.org/Graphics/SVG/1.1/DTD/svg11.dtd">
<svg version="1.1" id="Layer_1" xmlns="http://www.w3.org/2000/svg" xmlns:xlink="http://www.w3.org/1999/xlink" x="0px" y="0px"
	 width="20px" height="20px" viewBox="0 0 20 20" enable-background="new 0 0 20 20" xml:space="preserve">
<g>
	<path fill="#666766" d="M0,5.002V1.669c0-0.232,0.081-0.43,0.242-0.591S0.6,0.836,0.833,0.836h3.333
		c0.233,0,0.431,0.081,0.592,0.242S5,1.437,5,1.669v3.333c0,0.232-0.081,0.43-0.242,0.591S4.4,5.835,4.167,5.835H0.833
		c-0.233,0-0.431-0.081-0.592-0.242S0,5.234,0,5.002z M0,11.666c0,0.233,0.081,0.431,0.242,0.592s0.358,0.241,0.592,0.241h3.333
		c0.233,0,0.431-0.08,0.592-0.241S5,11.899,5,11.666V8.334c0-0.233-0.081-0.431-0.242-0.592S4.4,7.501,4.167,7.501H0.833
		c-0.233,0-0.431,0.08-0.592,0.241S0,8.101,0,8.334V11.666z M0,18.33v-3.332c0-0.232,0.081-0.43,0.242-0.592
		c0.161-0.16,0.358-0.241,0.592-0.241h3.333c0.233,0,0.431,0.081,0.592,0.241C4.919,14.568,5,14.766,5,14.998v3.332
		c0,0.234-0.081,0.432-0.242,0.592c-0.161,0.162-0.358,0.242-0.592,0.242H0.833c-0.233,0-0.431-0.08-0.592-0.242
		C0.081,18.762,0,18.564,0,18.33z M6.667,5.002V1.669c0-0.232,0.081-0.43,0.242-0.591S7.267,0.836,7.5,0.836h11.667
		c0.233,0,0.431,0.081,0.592,0.242C19.919,1.239,20,1.437,20,1.669v3.333c0,0.232-0.081,0.43-0.241,0.591
		c-0.161,0.161-0.358,0.242-0.592,0.242H7.5c-0.233,0-0.431-0.081-0.592-0.242S6.667,5.234,6.667,5.002z M6.667,11.666V8.334
		c0-0.233,0.081-0.431,0.242-0.592S7.267,7.501,7.5,7.501h11.667c0.233,0,0.431,0.08,0.592,0.241C19.919,7.903,20,8.101,20,8.334
		v3.332c0,0.233-0.081,0.431-0.241,0.592c-0.161,0.161-0.358,0.241-0.592,0.241H7.5c-0.233,0-0.431-0.08-0.592-0.241
		S6.667,11.899,6.667,11.666z M6.667,18.33v-3.332c0-0.232,0.081-0.43,0.242-0.592c0.161-0.16,0.358-0.241,0.592-0.241h11.667
		c0.233,0,0.431,0.081,0.592,0.241C19.919,14.568,20,14.766,20,14.998v3.332c0,0.234-0.081,0.432-0.241,0.592
		c-0.161,0.162-0.358,0.242-0.592,0.242H7.5c-0.233,0-0.431-0.08-0.592-0.242C6.747,18.762,6.667,18.564,6.667,18.33z"/>
</g>
</svg>
